<?xml version="1.0" encoding="utf-8"?>
<!-- Generator: Adobe Illustrator 19.0.0, SVG Export Plug-In . SVG Version: 6.00 Build 0)  -->
<svg version="1.1" id="layer" xmlns="http://www.w3.org/2000/svg" xmlns:xlink="http://www.w3.org/1999/xlink" x="0px" y="0px"
	 viewBox="-153 -46 652 652" style="enable-background:new -153 -46 652 652;" xml:space="preserve">
<style type="text/css">
	.st0{fill:#E30518;}
	.st1{fill-rule:evenodd;clip-rule:evenodd;fill:#DF271C;}
	.st2{fill-rule:evenodd;clip-rule:evenodd;fill:#0074C8;}
	.st3{fill-rule:evenodd;clip-rule:evenodd;fill:#FFD000;}
	.st4{fill-rule:evenodd;clip-rule:evenodd;fill:#EF8A00;}
	.st5{fill:#2C2A27;}
	.st6{fill-rule:evenodd;clip-rule:evenodd;fill:#2C2A27;}
	.st7{fill:none;stroke:#2C2A27;stroke-width:0.5542;stroke-miterlimit:3.864;}
</style>
<g>
	<path class="st0" d="M-16.8,296.4c9.4,2,32.6,1.4,33.1-13.8c0-6.1-7.9-11.8-15.3-13.4c-9.2-2-15.1-2-24.4,0
		c-5.7,2.2-7.5-3.4-2.3-5.3c9.9-3.6,48.4-4.4,50.3,18.8c-1.6,22.8-35.3,21.2-42.8,19.7c-3-0.6-5.3-2-5.3-5.8v-19
		c0-4.5,6.7-4.5,6.7,0V296.4z"/>
	<path class="st0" d="M55.5,269.6c-7.5,0-20.1,22.9-23.9,31.1c-2.2,4.9-9.2,1.4-7-3.5c4-8.8,19-35.4,30.8-35.2
		c11.8-0.2,26.8,26.4,30.8,35.2c2.2,4.9-4.8,8.4-7,3.5C75.5,292.4,63,269.6,55.5,269.6"/>
	<path class="st0" d="M108,295.4c7.5,0,20.1-22.9,23.8-31.1c2.2-4.9,9.2-1.4,7,3.5c-4,8.8-19,35.5-30.8,35.2
		c-11.8,0.2-26.8-26.4-30.8-35.2c-2.2-4.9,4.8-8.4,7-3.5C88,272.5,100.5,295.4,108,295.4"/>
	<path class="st0" d="M151.5,265.8v33.4c0,5-7.5,4.8-7.5-0.2l0-33.2C144,260.6,151.5,260.6,151.5,265.8"/>
	<path class="st0" d="M187.5,295.4c7.5,0,20.1-22.9,23.8-31.1c2.2-4.9,9.2-1.4,7,3.5c-4,8.8-19,35.5-30.8,35.2
		c-11.8,0.2-26.8-26.4-30.8-35.2c-2.2-4.9,4.8-8.4,7-3.5C167.5,272.5,180,295.4,187.5,295.4"/>
	<path class="st0" d="M245.4,285.9c2.2,4.7,8.5,8.4,14.6,9.8c9.2,2,15.1,2,24.4,0c5.5-1.8,7.5,3.6,2.3,5.3
		c-10.3,3.5-48.1,4.7-50.4-18.5c1.2-22.1,31.5-21.5,43-20c5.6,0.7,4.5,6.7-1.4,5.5c-7.7-1-28.7-2.3-32.8,11.7l21.5,0
		c3.4,0,3.4,6.2,0,6.2L245.4,285.9z"/>
	<path class="st0" d="M365.3,296.4c9.4,2,32.6,1.4,33.1-13.8c0-6.1-7.9-11.8-15.3-13.4c-9.2-2-15-2-24.4,0c-5.7,2.2-7.5-3.4-2.3-5.3
		c9.9-3.6,48.4-4.4,50.2,18.8c-1.6,22.8-35.2,21.2-42.8,19.7c-3-0.6-5.3-2-5.3-5.8v-19c0-4.5,6.7-4.5,6.7,0L365.3,296.4z"/>
	<path class="st0" d="M437.7,269.6c-7.5,0-20.1,22.9-23.9,31.1c-2.2,4.9-9.2,1.4-7-3.5c4-8.8,19-35.4,30.8-35.2
		c11.8-0.2,26.8,26.4,30.8,35.2c2.2,4.9-4.8,8.4-7,3.5C457.7,292.4,445.2,269.6,437.7,269.6"/>
	<path class="st0" d="M231,265.8v33.4c0,5-7.5,4.8-7.5-0.2v-33.2C223.5,260.6,231,260.6,231,265.8"/>
	<path class="st0" d="M321.6,289.3c-4.7-8.5-9.8-19.8-13.3-20.1c-8.7,0-4.8,17.1-4.9,30.5c-0.1,4.7-7.5,4.7-7.5-0.5
		c0-17-3.7-37.4,12.6-37.4c4.8,0,9.3,7.1,13.3,13.9c4.7,8.5,10.2,19.9,13.7,20.1c8.7,0,4.5-16.8,4.7-30.1c0.1-4.7,7.5-4.7,7.5,0.5
		c0,17.1,3.9,37-12.4,37C330.6,303.1,325.7,296,321.6,289.3"/>
	<path class="st1" d="M-120,271.8c0.1,1.2,0,6.4-4.8,13.5c-5,7.9,2.9,21,18.7,17.7c3.5,1.3,7.2,1.4,9.7,1.4c2.4,0,6.2-0.1,9.7-1.4
		c15.9,3.3,23.7-9.8,18.7-17.7c-4.8-7.1-4.9-12.3-4.8-13.5H-120z"/>
	<path class="st2" d="M-96.4,304.4c-15.5-0.4-18.3-7.5-14-9c2.5-0.9,5.8-2.3,5.8-2.3c-1.7-8,1.1-18.3,8.3-18.3
		c7.2,0,9.9,10.6,8.2,18.5c0,0,3.3,1.2,5.7,2.2C-78.3,296.9-80.9,304-96.4,304.4"/>
	<path class="st3" d="M-102.2,298.8c-4.1-11.5-0.5-22.3,5.8-22.3c6,0,10.1,10.5,5.9,22.2c0,0-2-0.5-6.1-0.5
		C-99.6,298.3-102.2,298.8-102.2,298.8"/>
	<path class="st4" d="M-96.4,304.5c6.2,0,11.2-1.3,11.2-3.2c0-1.9-4.9-3.2-11.2-3.2c-6.2,0-11.1,1.3-11.1,3.2
		C-107.5,303.1-102.6,304.5-96.4,304.5"/>
	<path class="st2" d="M-117,277.5h7.5c1.2,0,2.1,0.9,2.1,2.1v5.1c0,1.2-1,2.2-2.1,2.2h-7.5c-1.2,0-2.2-1-2.2-2.2v-5.1
		C-119.2,278.5-118.2,277.5-117,277.5"/>
	<path class="st5" d="M-116.2,278.7h5.9c0.9,0,1.6,0.7,1.6,1.6v3.7c0,0.9-0.7,1.6-1.6,1.6h-5.9c-0.9,0-1.6-0.7-1.6-1.6v-3.7
		C-117.8,279.4-117,278.7-116.2,278.7"/>
	<path class="st3" d="M-108.6,283.1c-2.7-0.3-3.6-3.4-3.8-4.4h2.2c0.9,0,1.6,0.7,1.6,1.6V283.1z"/>
	<path class="st3" d="M-113.9,278.7c-0.2,0.9-1,4.3-3.9,4.4v-2.8c0-0.9,0.7-1.6,1.6-1.6H-113.9z"/>
	<path class="st2" d="M-83.3,277.5h7.5c1.2,0,2.1,0.9,2.1,2.1v5.1c0,1.2-1,2.2-2.1,2.2h-7.5c-1.2,0-2.1-1-2.1-2.2v-5.1
		C-85.4,278.5-84.5,277.5-83.3,277.5"/>
	<path class="st5" d="M-82.4,278.7h5.9c0.9,0,1.6,0.7,1.6,1.6v3.7c0,0.9-0.7,1.6-1.6,1.6h-5.9c-0.9,0-1.6-0.7-1.6-1.6v-3.7
		C-84,279.4-83.3,278.7-82.4,278.7"/>
	<path class="st3" d="M-74.9,283.1c-2.7-0.3-3.6-3.4-3.8-4.4h2.2c0.9,0,1.6,0.7,1.6,1.6V283.1z"/>
	<path class="st3" d="M-80.2,278.7c-0.2,0.9-1,4.3-3.9,4.4v-2.8c0-0.9,0.7-1.6,1.6-1.6H-80.2z"/>
	<path class="st1" d="M-80.9,252.4c-0.8-2.7-0.9-4,1.5-4h5.4c3.3-0.1,1.9,2.5,1.6,5c-0.4,3.3-0.4,4.3-0.4,4.3
		S-80.9,252.4-80.9,252.4"/>
	<path class="st4" d="M-96.4,271.6c-8.1,0-19.2,0.7-26.3,1.3c-5.5,0.4-9.7-3.7-6.1-7.7c7.8-8.4,26.7-19,32.4-19
		c6.1,0,24.7,10.6,32.4,19c3.7,3.9,0,7.7-5.5,7.7C-75.6,272.8-88.4,271.6-96.4,271.6"/>
	<path d="M-92.1,290.4c0-0.6,0.5-1.1,1.1-1.1c0.6,0,1,0.5,1,1.1c0,0.6-0.5,1.1-1,1.1C-91.6,291.5-92.1,291-92.1,290.4"/>
	<path class="st6" d="M-96.4,297.9c-3.2,0-5.8,0.5-5.8,0.5c-3.8-11.2-0.3-21.7,5.8-21.7c6.1,0,9.7,10.5,5.8,21.7
		C-90.6,298.4-93.1,297.9-96.4,297.9 M-90.7,298.8c3.2,0.5,5.3,1.4,5.3,2.5c0,1.6-4.9,2.9-11,2.9c-6.1,0-11-1.3-11-2.9
		c0-1.1,2.1-2,5.3-2.5c0,0,3.5-0.4,5.7-0.4C-94.2,298.4-90.7,298.8-90.7,298.8 M-90.2,298.5c4-11.6,0.1-22.3-6.2-22.2
		c-6.3,0-10.2,10.6-6.1,22.2c-3.1,0.6-5.2,1.6-5.2,2.8c0,0.4,0.2,0.7,0.6,1.1c-5.2-2.3-5.7-6-2.9-7c2.5-0.9,5.5-2,5.5-2
		c-1.6-7.8,0.9-18.3,8.1-18.3c7.2,0,9.7,10.5,8.1,18.3c0,0,3,1.2,5.5,2c2.8,0.9,2.4,4.7-2.8,7c0.4-0.3,0.6-0.7,0.6-1.1
		C-85.1,300.1-87.1,299.1-90.2,298.5 M-80.5,252.2c-0.6-2.4-0.6-3.5,1.5-3.5h4.7c3.1-0.1,1.8,2.3,1.5,4.7c-0.2,1.4-0.3,2.6-0.3,3.5
		C-75.6,255.2-78.1,253.6-80.5,252.2 M-85.9,302.9c14.9,2.5,22.1-9.9,17.4-17.5c-3.7-5.4-4.5-10-4.7-12.4c-9.7-0.5-16.5-1-23.2-1.1
		c-6.7,0.1-13.4,0.6-23.2,1.1c-0.2,2.4-1,6.9-4.7,12.4c-4.8,7.5,2.5,20,17.4,17.5c-6.3-2.4-7.1-6.5-3.7-7.8c2.5-0.9,5.7-2.1,5.7-2.1
		c-1.6-8,1.2-18.7,8.4-18.6c7.2,0,10.1,10.6,8.4,18.6c0,0,3.3,1.2,5.8,2.1C-78.8,296.5-79.6,300.6-85.9,302.9 M-96.4,271
		c-8.4,0.1-16.3,0.7-25.7,1.3c-5.8,0.4-9.1-3.5-5.4-7.5c5.4-5.9,23.8-18,31.1-18c7.3,0,25.7,12.1,31.1,18c3.6,4,0.4,7.9-5.4,7.5
		C-80.1,271.7-88,271.1-96.4,271 M-81.6,251.6c-0.1-0.2-0.1-0.5-0.2-0.7c-0.4-1.4,0-3,2.5-3h5.4c3.2,0,2.8,2.2,2.3,4.3
		c-0.4,1.5-0.7,3.5-0.8,5.3c0,0,4.4,3.3,6.9,5.3c7.8,6.6,2.7,10.8-4.7,10.5c-0.7,0-1.5-0.1-2.2-0.1c0.1,2.2,0.7,6.2,4.1,10.8
		c8.6,10.3-2.8,23.2-18.9,19.5c-2.7,0.9-6.9,1.3-9.2,1.3c-2.3,0-6.5-0.4-9.2-1.3c-16.1,3.6-27.4-9.3-18.8-19.5
		c3.4-4.6,4.1-8.6,4.1-10.8l-2.2,0.1c-7.4,0.4-12.5-3.9-4.7-10.5c11.5-9.7,25.5-16.9,30.8-17C-93.4,245.9-87.9,248.1-81.6,251.6"/>
	<path class="st7" d="M-117,277.5h7.5c1.2,0,2.1,0.9,2.1,2.1v5.1c0,1.2-1,2.2-2.1,2.2h-7.5c-1.2,0-2.2-1-2.2-2.2v-5.1
		C-119.2,278.5-118.2,277.5-117,277.5z"/>
	<path class="st7" d="M-83.3,277.5h7.5c1.2,0,2.1,0.9,2.1,2.1v5.1c0,1.2-1,2.2-2.1,2.2h-7.5c-1.2,0-2.1-1-2.1-2.2v-5.1
		C-85.4,278.5-84.5,277.5-83.3,277.5z"/>
</g>
</svg>
