<?xml version="1.0" standalone="no"?>
<!DOCTYPE svg PUBLIC "-//W3C//DTD SVG 20010904//EN"
 "http://www.w3.org/TR/2001/REC-SVG-20010904/DTD/svg10.dtd">
<svg version="1.0" xmlns="http://www.w3.org/2000/svg"
 width="100.000000pt" height="100.000000pt" viewBox="0 0 100.000000 100.000000"
 preserveAspectRatio="xMidYMid meet">

<g transform="translate(0.000000,100.000000) scale(0.100000,-0.100000)"
fill="#3a86ff" stroke="none">
<path d="M421 949 c-184 -32 -340 -192 -371 -382 -47 -296 221 -564 517 -517
296 48 470 362 349 633 -84 189 -292 301 -495 266z m59 -130 l0 -102 -70 5
c-39 3 -73 8 -77 11 -11 11 57 135 88 161 53 45 59 38 59 -75z m99 75 c31 -26
99 -150 88 -161 -4 -3 -38 -8 -77 -11 l-70 -5 0 102 c0 113 6 120 59 75z
m-219 -29 c-17 -25 -37 -62 -44 -83 -11 -29 -18 -36 -35 -35 -33 4 -91 31 -91
42 0 23 152 118 193 120 4 1 -6 -19 -23 -44z m301 30 c46 -17 149 -89 149
-106 0 -11 -58 -38 -91 -42 -17 -1 -24 6 -35 35 -7 21 -27 58 -44 83 -17 25
-29 45 -27 45 3 0 24 -7 48 -15z m-436 -160 c55 -22 60 -27 57 -52 -2 -15 -7
-57 -10 -93 l-7 -65 -96 -3 -96 -3 8 54 c10 61 32 119 61 160 11 15 20 27 21
27 1 0 29 -11 62 -25z m638 -12 c32 -53 46 -90 56 -151 l8 -53 -96 3 -96 3 -8
70 c-4 39 -9 80 -10 93 -2 19 7 27 53 46 30 13 58 24 62 25 4 0 18 -16 31 -36z
m-425 -33 l42 0 0 -85 0 -85 -93 0 -93 0 8 78 c11 105 11 106 56 98 20 -3 56
-6 80 -6z m247 -2 c3 -7 9 -48 13 -90 l8 -78 -93 0 -93 0 0 85 0 84 58 4 c31
2 67 4 80 5 12 1 25 -4 27 -10z m-412 -283 c4 -38 9 -80 10 -93 2 -19 -8 -27
-57 -47 -44 -18 -63 -21 -73 -14 -23 19 -62 115 -71 173 l-9 57 96 -3 96 -3 8
-70z m207 -9 l0 -83 -77 -6 c-43 -3 -81 -3 -85 1 -4 4 -11 44 -15 90 l-9 82
93 0 93 0 0 -84z m217 2 c-4 -46 -11 -86 -15 -90 -4 -4 -42 -4 -84 -1 l-78 6
0 83 0 84 93 0 93 0 -9 -82z m222 32 c-8 -52 -53 -163 -73 -180 -8 -6 -31 -1
-72 15 -49 20 -59 28 -57 47 6 65 15 144 19 156 2 8 31 12 97 12 l94 0 -8 -50z
m-439 -250 c0 -111 -6 -119 -57 -76 -28 24 -74 99 -87 143 -8 25 6 29 92 32
l52 1 0 -100z m187 87 c12 -12 -59 -137 -91 -162 -53 -40 -56 -36 -56 76 l0
102 70 -5 c39 -3 73 -8 77 -11z m-351 -50 c7 -20 27 -57 44 -82 17 -25 29 -45
27 -45 -44 0 -202 100 -194 123 4 13 86 48 101 43 5 -1 15 -19 22 -39z m462
17 c17 -7 32 -18 32 -23 0 -24 -154 -121 -191 -121 -5 0 6 24 26 52 19 29 35
56 35 60 0 4 5 19 10 33 11 28 17 28 88 -1z"/>
</g>
</svg>
