<?xml version="1.0" standalone="no"?>
<!DOCTYPE svg PUBLIC "-//W3C//DTD SVG 20010904//EN"
 "http://www.w3.org/TR/2001/REC-SVG-20010904/DTD/svg10.dtd">
<svg version="1.0" xmlns="http://www.w3.org/2000/svg"
 width="96.000000pt" height="96.000000pt" viewBox="0 0 96.000000 96.000000"
 preserveAspectRatio="xMidYMid meet">

<g transform="translate(0.000000,96.000000) scale(0.100000,-0.100000)"
fill="#3a86ff" stroke="none">
<path d="M315 873 c-44 -23 -65 -44 -86 -85 -39 -77 -15 -191 51 -240 l30 -22
-52 -25 c-100 -47 -176 -151 -186 -252 -4 -41 -2 -49 12 -49 12 0 16 10 16 38
0 50 51 153 93 188 48 41 124 71 196 79 131 13 201 81 201 195 0 113 -79 190
-192 190 -29 -1 -66 -8 -83 -17z m173 -33 c48 -30 72 -75 72 -140 0 -65 -24
-110 -72 -140 -45 -27 -131 -27 -176 0 -48 30 -72 75 -72 140 0 65 24 110 72
140 45 27 131 27 176 0z"/>
<path d="M580 468 c-69 -37 -104 -94 -108 -176 -3 -56 0 -74 20 -112 37 -69
94 -104 176 -108 56 -3 74 0 112 20 69 37 104 94 108 176 3 56 0 74 -20 112
-37 69 -94 104 -176 108 -56 3 -74 0 -112 -20z m195 -31 c60 -34 87 -87 83
-168 -3 -53 -9 -73 -30 -101 -76 -99 -244 -89 -306 17 -19 33 -22 52 -20 106
4 76 32 124 90 152 49 24 134 22 183 -6z"/>
<path d="M700 305 l-44 -45 -22 21 c-29 27 -60 19 -44 -10 5 -11 22 -29 37
-41 l27 -21 58 58 c32 31 58 63 58 70 0 25 -26 13 -70 -32z"/>
</g>
</svg>
