<?xml version="1.0" encoding="UTF-8" standalone="no"?>
<!DOCTYPE svg PUBLIC "-//W3C//DTD SVG 1.1//EN" "http://www.w3.org/Graphics/SVG/1.1/DTD/svg11.dtd">
<svg xmlns="http://www.w3.org/2000/svg" version="1.1" viewBox="0.00 0.00 150.00 150.00">
<path fill="#3a86ff" d="
  M 57.88 73.17
  Q 65.79 77.28 74.26 82.23
  Q 75.55 82.99 75.55 83.76
  Q 75.55 84.91 74.52 85.44
  Q 70.26 87.63 66.00 89.75
  Q 63.86 90.81 61.79 90.88
  Q 58.70 90.99 57.34 90.39
  Q 47.32 85.97 43.00 81.99
  Q 38.50 77.83 38.50 70.01
  Q 38.51 64.74 41.60 60.37
  Q 43.56 57.62 48.12 55.03
  Q 57.29 49.84 66.83 45.40
  Q 67.30 45.19 67.81 45.23
  Q 69.78 45.39 71.57 44.60
  Q 72.01 44.41 72.44 44.61
  C 74.02 45.36 75.65 45.21 77.12 45.75
  Q 82.42 47.70 84.65 52.63
  A 0.99 0.99 0.0 0 1 84.21 53.91
  L 57.86 67.83
  A 3.01 3.01 0.0 0 0 57.88 73.17
  Z"
/>
<path fill="#3a86ff" d="
  M 72.37 92.90
  Q 82.82 86.59 90.78 82.78
  Q 93.96 81.27 93.50 78.21
  A 1.16 1.15 10.6 0 0 92.91 77.36
  L 75.47 67.81
  Q 73.21 66.57 75.40 65.20
  Q 78.65 63.19 82.68 60.98
  Q 86.22 59.04 88.55 59.00
  Q 91.25 58.96 93.67 60.33
  C 97.57 62.53 101.55 64.45 104.67 66.57
  C 112.10 71.63 113.97 81.81 108.88 89.00
  C 105.97 93.09 100.92 95.35 96.17 97.73
  Q 94.43 98.61 90.78 100.85
  Q 85.90 103.86 80.29 105.16
  C 77.92 105.71 75.19 104.96 73.18 104.31
  Q 67.80 102.58 65.33 97.59
  Q 65.08 97.08 65.54 96.75
  Q 67.13 95.60 68.86 94.72
  Q 71.83 93.22 72.37 92.90
  Z"
/>
</svg>
