<?xml version="1.0" standalone="no"?>
<!DOCTYPE svg PUBLIC "-//W3C//DTD SVG 20010904//EN"
 "http://www.w3.org/TR/2001/REC-SVG-20010904/DTD/svg10.dtd">
<svg version="1.0" xmlns="http://www.w3.org/2000/svg"
 width="64.000000pt" height="64.000000pt" viewBox="0 0 64.000000 64.000000"
 preserveAspectRatio="xMidYMid meet">

<g transform="translate(0.000000,64.000000) scale(0.100000,-0.100000)"
fill="#3a86ff" stroke="none">
<path d="M188 564 l-128 -64 0 -43 c1 -130 62 -280 150 -369 90 -90 130 -90
220 0 33 33 70 84 88 122 46 94 76 253 54 286 -6 10 -246 135 -254 133 -2 0
-60 -29 -130 -65z m259 -160 c4 -11 -17 -39 -68 -90 -40 -41 -78 -74 -83 -74
-18 0 -76 63 -76 82 0 25 19 22 50 -7 l26 -25 64 65 c35 36 68 65 73 65 4 0
10 -7 14 -16z"/>
</g>
</svg>
