<?xml version="1.0" encoding="utf-8"?>
<!-- Generator: Adobe Illustrator 28.0.0, SVG Export Plug-In . SVG Version: 6.00 Build 0)  -->
<svg version="1.0" id="katman_1" xmlns="http://www.w3.org/2000/svg" xmlns:xlink="http://www.w3.org/1999/xlink" x="0px" y="0px"
	 viewBox="0 0 407.93 285.7" style="enable-background:new 0 0 407.93 285.7;" xml:space="preserve">
<style type="text/css">
	.st0{clip-path:url(#SVGID_00000090275446193373213190000016492387125287149728_);}
	.st1{fill-rule:evenodd;clip-rule:evenodd;fill:#3375BB;}
	.st2{fill:#3375BB;}
</style>
<g>
	<defs>
		<rect id="SVGID_1_" x="42.96" y="103.85" width="75.79" height="75.79"/>
	</defs>
	<clipPath id="SVGID_00000008148025390983149480000017954407301046873781_">
		<use xlink:href="#SVGID_1_"  style="overflow:visible;"/>
	</clipPath>
	<g style="clip-path:url(#SVGID_00000008148025390983149480000017954407301046873781_);">
		<path class="st1" d="M45.54,116.78c-2.58,5.07-2.58,11.7-2.58,24.96s0,19.9,2.58,24.96c2.27,4.45,5.9,8.08,10.35,10.35
			c5.07,2.58,11.7,2.58,24.96,2.58s19.9,0,24.96-2.58c4.45-2.27,8.08-5.9,10.35-10.35c2.58-5.07,2.58-11.7,2.58-24.96
			s0-19.9-2.58-24.96c-2.27-4.45-5.9-8.08-10.35-10.35c-5.07-2.58-11.7-2.58-24.96-2.58s-19.9,0-24.96,2.58
			C51.44,108.71,47.82,112.33,45.54,116.78z M99.77,124.29c0.66,0,1.29,0.27,1.75,0.73c0.46,0.47,0.72,1.11,0.71,1.76
			c-0.12,7.06-0.39,12.46-0.9,16.73c-0.5,4.28-1.24,7.45-2.37,10.02c-0.76,1.72-1.69,3.14-2.79,4.35c-1.48,1.6-3.17,2.76-5.02,3.86
			c-0.79,0.47-1.61,0.94-2.47,1.43c-1.84,1.04-3.86,2.19-6.15,3.72c-0.83,0.56-1.91,0.56-2.74,0c-2.33-1.55-4.37-2.71-6.23-3.76
			c-0.41-0.23-0.82-0.46-1.21-0.69c-2.17-1.26-4.12-2.45-5.83-4.18c-1.14-1.14-2.12-2.52-2.9-4.17c-1.07-2.2-1.79-4.87-2.32-8.31
			c-0.71-4.61-1.07-10.63-1.2-19c-0.01-0.65,0.24-1.29,0.7-1.76c0.46-0.46,1.1-0.73,1.76-0.73h1.02c3.14,0.01,10.07-0.3,16.06-4.96
			c0.89-0.69,2.13-0.69,3.02,0c5.99,4.67,12.92,4.97,16.07,4.96H99.77z M94.26,151.97c0.77-1.59,1.41-3.78,1.89-6.93
			c0.58-3.77,0.94-8.88,1.1-15.85c-3.69-0.11-10.04-0.82-16.09-4.89c-6.05,4.06-12.4,4.77-16.08,4.89
			c0.13,5.76,0.39,10.23,0.81,13.75c0.47,4,1.15,6.71,1.99,8.62c0.56,1.27,1.17,2.18,1.91,2.98c0.98,1.08,2.23,1.97,3.92,2.98
			c0.7,0.42,1.48,0.86,2.32,1.34c1.5,0.85,3.22,1.82,5.14,3.04c1.88-1.2,3.58-2.16,5.06-3.01c0.45-0.25,0.88-0.5,1.28-0.73
			c2.08-1.2,3.62-2.19,4.77-3.35C93.06,154.03,93.68,153.16,94.26,151.97z"/>
	</g>
</g>
<path class="st2" d="M149.33,134.18h-8.49v-5h23.12v5h-8.49v21.52h-6.14V134.18z M170.91,138.01c0.71-0.99,1.65-1.73,2.84-2.24
	c1.21-0.51,2.6-0.76,4.17-0.76v5.46c-0.66-0.05-1.1-0.08-1.33-0.08c-1.69,0-3.02,0.48-3.98,1.44c-0.96,0.93-1.44,2.35-1.44,4.24
	v9.63h-5.91v-20.39h5.65V138.01z M200.99,135.32v20.39h-5.61v-2.43c-0.78,0.88-1.72,1.57-2.8,2.05c-1.09,0.45-2.26,0.68-3.52,0.68
	c-2.68,0-4.8-0.77-6.37-2.31c-1.57-1.54-2.35-3.83-2.35-6.86v-11.52h5.91v10.65c0,3.28,1.38,4.93,4.13,4.93
	c1.41,0,2.55-0.45,3.41-1.36c0.86-0.93,1.29-2.31,1.29-4.13v-10.08H200.99z M212.19,156.01c-1.69,0-3.35-0.2-4.96-0.61
	c-1.62-0.43-2.91-0.96-3.87-1.59l1.97-4.24c0.91,0.58,2.01,1.06,3.3,1.44c1.29,0.35,2.55,0.53,3.79,0.53c2.5,0,3.75-0.62,3.75-1.86
	c0-0.58-0.34-1-1.02-1.25c-0.68-0.25-1.73-0.47-3.15-0.64c-1.67-0.25-3.04-0.54-4.13-0.87c-1.09-0.33-2.03-0.91-2.84-1.74
	c-0.78-0.83-1.17-2.02-1.17-3.56c0-1.29,0.37-2.43,1.1-3.41c0.76-1.01,1.84-1.79,3.26-2.35c1.44-0.56,3.13-0.83,5.08-0.83
	c1.44,0,2.87,0.16,4.28,0.49c1.44,0.3,2.63,0.73,3.56,1.29l-1.97,4.21c-1.79-1.01-3.75-1.52-5.87-1.52c-1.26,0-2.21,0.18-2.84,0.53
	c-0.63,0.35-0.95,0.81-0.95,1.36c0,0.63,0.34,1.07,1.02,1.33c0.68,0.25,1.77,0.49,3.26,0.72c1.67,0.28,3.03,0.58,4.09,0.91
	c1.06,0.3,1.98,0.87,2.77,1.71c0.78,0.83,1.17,2,1.17,3.49c0,1.26-0.38,2.39-1.14,3.37s-1.87,1.76-3.33,2.31
	C215.9,155.75,214.19,156.01,212.19,156.01z M237.48,154.72c-0.58,0.43-1.3,0.76-2.16,0.99c-0.83,0.2-1.72,0.3-2.65,0.3
	c-2.43,0-4.31-0.62-5.65-1.86c-1.31-1.24-1.97-3.06-1.97-5.46v-8.37h-3.15v-4.55h3.15v-4.96h5.91v4.96h5.08v4.55h-5.08v8.3
	c0,0.86,0.21,1.53,0.64,2.01c0.45,0.45,1.09,0.68,1.89,0.68c0.93,0,1.73-0.25,2.39-0.76L237.48,154.72z M289.76,129.18l-8.68,26.53
	h-6.59l-5.84-17.96l-6.03,17.96h-6.56l-8.72-26.53h6.37l5.99,18.64l6.25-18.64h5.68l6.06,18.8l6.18-18.8H289.76z M298.34,135.02
	c3.16,0,5.58,0.76,7.28,2.27c1.69,1.49,2.54,3.75,2.54,6.78v11.63h-5.53v-2.54c-1.11,1.89-3.18,2.84-6.21,2.84
	c-1.57,0-2.93-0.27-4.09-0.8c-1.14-0.53-2.01-1.26-2.61-2.2c-0.61-0.93-0.91-2-0.91-3.18c0-1.89,0.71-3.39,2.12-4.47
	c1.44-1.09,3.65-1.63,6.63-1.63h4.7c0-1.29-0.39-2.27-1.17-2.96c-0.78-0.71-1.96-1.06-3.52-1.06c-1.09,0-2.16,0.18-3.22,0.53
	c-1.04,0.33-1.92,0.78-2.65,1.36l-2.12-4.13c1.11-0.78,2.44-1.39,3.98-1.82C295.1,135.23,296.7,135.02,298.34,135.02z
	 M297.89,152.03c1.01,0,1.91-0.23,2.69-0.68c0.78-0.48,1.34-1.17,1.67-2.08v-2.08h-4.05c-2.43,0-3.64,0.8-3.64,2.39
	c0,0.76,0.29,1.36,0.87,1.82C296.03,151.82,296.85,152.03,297.89,152.03z M312.37,127.59h5.91v28.12h-5.91V127.59z M322.63,127.59
	h5.91v28.12h-5.91V127.59z M352.86,145.59c0,0.08-0.04,0.61-0.11,1.59h-15.42c0.28,1.26,0.94,2.26,1.97,2.99
	c1.04,0.73,2.33,1.1,3.87,1.1c1.06,0,2-0.15,2.8-0.45c0.83-0.33,1.61-0.83,2.31-1.52l3.15,3.41c-1.92,2.2-4.72,3.3-8.41,3.3
	c-2.3,0-4.33-0.44-6.1-1.33c-1.77-0.91-3.13-2.16-4.09-3.75c-0.96-1.59-1.44-3.4-1.44-5.42c0-2,0.47-3.79,1.4-5.38
	c0.96-1.62,2.26-2.87,3.9-3.75c1.67-0.91,3.52-1.36,5.57-1.36c2,0,3.8,0.43,5.42,1.29c1.62,0.86,2.88,2.1,3.79,3.71
	C352.4,141.61,352.86,143.47,352.86,145.59z M342.29,139.49c-1.34,0-2.46,0.38-3.37,1.14c-0.91,0.76-1.46,1.79-1.67,3.11h10.04
	c-0.2-1.29-0.76-2.31-1.67-3.07C344.72,139.88,343.61,139.49,342.29,139.49z M368.81,154.72c-0.58,0.43-1.3,0.76-2.16,0.99
	c-0.83,0.2-1.72,0.3-2.65,0.3c-2.43,0-4.31-0.62-5.65-1.86c-1.31-1.24-1.97-3.06-1.97-5.46v-8.37h-3.15v-4.55h3.15v-4.96h5.91v4.96
	h5.08v4.55h-5.08v8.3c0,0.86,0.21,1.53,0.64,2.01c0.45,0.45,1.09,0.68,1.89,0.68c0.93,0,1.73-0.25,2.39-0.76L368.81,154.72z"/>
</svg>
